<mxfile host="app.diagrams.net" modified="2022-07-22T04:34:20.280Z" agent="5.0 (Macintosh; Intel Mac OS X 10_15_7) AppleWebKit/605.1.15 (KHTML, like Gecko) Version/15.5 Safari/605.1.15" etag="CF2qM0QgCgxvR_7g7dAp" version="20.1.4" type="github">
  <diagram id="WuRpuoDM737MqYio57hu" name="Page-1">
    <mxGraphModel dx="946" dy="725" grid="1" gridSize="10" guides="1" tooltips="1" connect="1" arrows="1" fold="1" page="1" pageScale="1" pageWidth="827" pageHeight="1169" math="0" shadow="0">
      <root>
        <mxCell id="0" />
        <mxCell id="1" parent="0" />
        <mxCell id="tSlyqh6sYOtIdpk0KEPe-13" value="" style="rounded=1;whiteSpace=wrap;html=1;fillStyle=auto;fillColor=#ffe6cc;strokeColor=#d79b00;" vertex="1" parent="1">
          <mxGeometry x="140" y="150" width="490" height="225" as="geometry" />
        </mxCell>
        <mxCell id="tSlyqh6sYOtIdpk0KEPe-14" style="edgeStyle=orthogonalEdgeStyle;rounded=0;orthogonalLoop=1;jettySize=auto;html=1;exitX=0.5;exitY=1;exitDx=0;exitDy=0;" edge="1" parent="1" source="tSlyqh6sYOtIdpk0KEPe-1" target="tSlyqh6sYOtIdpk0KEPe-2">
          <mxGeometry relative="1" as="geometry" />
        </mxCell>
        <mxCell id="tSlyqh6sYOtIdpk0KEPe-1" value="Start" style="rounded=0;whiteSpace=wrap;html=1;" vertex="1" parent="1">
          <mxGeometry x="340" y="90" width="90" height="30" as="geometry" />
        </mxCell>
        <mxCell id="tSlyqh6sYOtIdpk0KEPe-5" style="edgeStyle=orthogonalEdgeStyle;rounded=0;orthogonalLoop=1;jettySize=auto;html=1;exitX=0.5;exitY=1;exitDx=0;exitDy=0;entryX=0.5;entryY=0;entryDx=0;entryDy=0;" edge="1" parent="1" source="tSlyqh6sYOtIdpk0KEPe-2" target="tSlyqh6sYOtIdpk0KEPe-3">
          <mxGeometry relative="1" as="geometry" />
        </mxCell>
        <mxCell id="tSlyqh6sYOtIdpk0KEPe-7" style="edgeStyle=orthogonalEdgeStyle;rounded=0;orthogonalLoop=1;jettySize=auto;html=1;exitX=0.5;exitY=1;exitDx=0;exitDy=0;entryX=0.5;entryY=0;entryDx=0;entryDy=0;" edge="1" parent="1" source="tSlyqh6sYOtIdpk0KEPe-2" target="tSlyqh6sYOtIdpk0KEPe-4">
          <mxGeometry relative="1" as="geometry" />
        </mxCell>
        <mxCell id="tSlyqh6sYOtIdpk0KEPe-2" value="Letter" style="rounded=0;whiteSpace=wrap;html=1;" vertex="1" parent="1">
          <mxGeometry x="340" y="160" width="90" height="30" as="geometry" />
        </mxCell>
        <mxCell id="tSlyqh6sYOtIdpk0KEPe-10" style="edgeStyle=orthogonalEdgeStyle;rounded=0;orthogonalLoop=1;jettySize=auto;html=1;exitX=0.5;exitY=1;exitDx=0;exitDy=0;entryX=0.5;entryY=0;entryDx=0;entryDy=0;" edge="1" parent="1" source="tSlyqh6sYOtIdpk0KEPe-3" target="tSlyqh6sYOtIdpk0KEPe-9">
          <mxGeometry relative="1" as="geometry" />
        </mxCell>
        <mxCell id="tSlyqh6sYOtIdpk0KEPe-3" value="OK" style="rounded=0;whiteSpace=wrap;html=1;" vertex="1" parent="1">
          <mxGeometry x="230" y="230" width="90" height="30" as="geometry" />
        </mxCell>
        <mxCell id="tSlyqh6sYOtIdpk0KEPe-12" style="edgeStyle=orthogonalEdgeStyle;rounded=0;orthogonalLoop=1;jettySize=auto;html=1;exitX=0.5;exitY=1;exitDx=0;exitDy=0;" edge="1" parent="1" source="tSlyqh6sYOtIdpk0KEPe-4" target="tSlyqh6sYOtIdpk0KEPe-11">
          <mxGeometry relative="1" as="geometry" />
        </mxCell>
        <mxCell id="tSlyqh6sYOtIdpk0KEPe-4" value="KO" style="rounded=0;whiteSpace=wrap;html=1;" vertex="1" parent="1">
          <mxGeometry x="440" y="230" width="90" height="30" as="geometry" />
        </mxCell>
        <mxCell id="tSlyqh6sYOtIdpk0KEPe-9" value="Letter" style="rounded=0;whiteSpace=wrap;html=1;" vertex="1" parent="1">
          <mxGeometry x="230" y="310" width="90" height="30" as="geometry" />
        </mxCell>
        <mxCell id="tSlyqh6sYOtIdpk0KEPe-11" value="Hangman" style="rounded=0;whiteSpace=wrap;html=1;" vertex="1" parent="1">
          <mxGeometry x="440" y="310" width="90" height="30" as="geometry" />
        </mxCell>
        <mxCell id="tSlyqh6sYOtIdpk0KEPe-15" value="Actor" style="shape=umlActor;verticalLabelPosition=bottom;verticalAlign=top;html=1;outlineConnect=0;fillStyle=auto;" vertex="1" parent="1">
          <mxGeometry x="540" y="290" width="30" height="60" as="geometry" />
        </mxCell>
      </root>
    </mxGraphModel>
  </diagram>
</mxfile>
